Coordinates
version=1
nRows=17
nColumns=24
inDegrees=yes

Units are S.I. units (second, meters, Newtons, ...)
Angles are in degrees.

endheader
time	pelvis_tilt	pelvis_list	pelvis_rotation	pelvis_tx	pelvis_ty	pelvis_tz	hip_flexion_r	hip_adduction_r	hip_rotation_r	knee_angle_r	ankle_angle_r	subtalar_angle_r	mtp_angle_r	hip_flexion_l	hip_adduction_l	hip_rotation_l	knee_angle_l	ankle_angle_l	subtalar_angle_l	mtp_angle_l	lumbar_extension	lumbar_bending	lumbar_rotation
      1.37883333	      1.75936211	      5.93719122	     -4.35474315	      0.28513870	      1.02188462	      0.23317316	     12.56491278	     -6.83030825	     -0.41109009	    -65.54223855	     -0.10333993	    -18.13774538	      4.04017573	      5.01232169	      9.79996882	     -2.04567680	     -7.45068136	     -1.70783647	    -12.22316917	      7.00628882	     -4.85444397	     -7.78828369	      6.44452863
      1.38300000	      1.73673153	      5.83889662	     -4.23279139	      0.28990454	      1.02251259	      0.23297414	     13.05668060	     -6.65232900	     -0.45496149	    -65.12589233	      0.11852857	    -17.90025974	      3.94141228	      4.58097078	      9.73442402	     -1.92193133	     -7.18367277	     -1.59243809	    -12.12093534	      6.95174496	     -4.90037572	     -7.69785573	      6.07737114
      1.38716667	      1.69141582	      5.70835755	     -4.11352272	      0.29467289	      1.02310582	      0.23281566	     13.54963630	     -6.42481276	     -0.48738850	    -64.63494661	      0.31580800	    -17.72646372	      3.89730812	      4.17756567	      9.62561852	     -1.82974422	     -6.92588892	     -1.51895913	    -12.02430307	      6.92221118	     -4.90965489	     -7.56920894	      5.91777540
      1.39133333	      1.67925878	      5.61488263	     -3.99022426	      0.29943397	      1.02367617	      0.23261904	     14.00726182	     -6.26420681	     -0.54430410	    -64.12145784	      0.53081586	    -17.45775324	      3.83192158	      3.73486049	      9.56208928	     -1.71936277	     -6.65295894	     -1.40655856	    -11.91976870	      6.87024741	     -4.95361498	     -7.47079486	      5.60694427
      1.39550000	      1.63165517	      5.49051946	     -3.87065586	      0.30420052	      1.02418632	      0.23246386	     14.48187114	     -6.05261015	     -0.58317481	    -63.54044321	      0.70535158	    -17.27186746	      3.81023126	      3.33558062	      9.45623209	     -1.63593521	     -6.39250193	     -1.33830439	    -11.81992832	      6.84759523	     -4.95545771	     -7.33572868	      5.46463182
      1.39966667	      1.63811240	      5.39680390	     -3.73792612	      0.30893408	      1.02471313	      0.23227259	     14.89339913	     -5.90044728	     -0.65372223	    -62.93231480	      0.90260882	    -16.98265141	      3.77080825	      2.87795668	      9.38899943	     -1.51689571	     -6.12473566	     -1.21573677	    -11.70807523	      6.79727312	     -5.02736422	     -7.24524298	      5.11803383
      1.40383333	      1.60057298	      5.28548846	     -3.61159331	      0.31367254	      1.02515938	      0.23212146	     15.33589206	     -5.71413518	     -0.70432576	    -62.26554552	      1.06071763	    -16.77075709	      3.75674082	      2.47496411	      9.29398423	     -1.42838177	     -5.87009764	     -1.14043367	    -11.60842035	      6.76983111	     -5.04095049	     -7.12974410	      4.94803660
      1.40800000	      1.56474090	      5.19195280	     -3.47985110	      0.31839258	      1.02553652	      0.23195322	     15.77358442	     -5.55962738	     -0.76637532	    -61.57408284	      1.23060996	    -16.52133570	      3.74859932	      2.07513703	      9.21766607	     -1.32563119	     -5.62101297	     -1.03989779	    -11.50708813	      6.74162069	     -5.05893243	     -7.03585930	      4.71575910
      1.41216667	      1.55570201	      5.12262704	     -3.35053241	      0.32310390	      1.02589463	      0.23178254	     16.17808782	     -5.44298279	     -0.83362217	    -60.85749689	      1.39562802	    -16.26280308	      3.74028437	      1.64272055	      9.16886369	     -1.21307078	     -5.35816309	     -0.91970039	    -11.40173917	      6.69247669	     -5.11295119	     -6.96390227	      4.36075707
      1.41633333	      1.52387390	      5.02422996	     -3.22277423	      0.32781698	      1.02622499	      0.23164456	     16.58198474	     -5.28373069	     -0.89175977	    -60.07126527	      1.52205151	    -16.07385687	      3.74212087	      1.24355606	      9.08141041	     -1.12576940	     -5.11403053	     -0.84072187	    -11.30329653	      6.67182894	     -5.13300254	     -6.86092061	      4.21494656
      1.42050000	      1.52416163	      4.95960093	     -3.08805183	      0.33250400	      1.02651600	      0.23147883	     16.95184675	     -5.18192331	     -0.96988023	    -59.27468583	      1.66957817	    -15.82559342	      3.75124810	      0.80961132	      9.03335844	     -1.00805842	     -4.86306299	     -0.70905893	    -11.19683106	      6.62643663	     -5.20040600	     -6.79899939	      3.85317269
      1.42466667	      1.47833179	      4.88381631	     -2.96323748	      0.33719947	      1.02672067	      0.23135178	     17.35687726	     -5.05441600	     -1.02543514	    -58.42877690	      1.78294322	    -15.65421751	      3.75928194	      0.43371806	      8.96564737	     -0.92299848	     -4.62639044	     -0.62629220	    -11.09978892	      6.60813072	     -5.20193015	     -6.71996255	      3.71160385
      1.42883333	      1.49267268	      4.82061652	     -2.82749189	      0.34187667	      1.02696209	      0.23119805	     17.68364181	     -4.96082671	     -1.10799393	    -57.55103402	      1.89570025	    -15.45206750	      3.77982245	     -0.00900100	      8.91496048	     -0.80752995	     -4.38494423	     -0.48601671	    -10.99002046	      6.56706040	     -5.28566626	     -6.65775181	      3.35023180
      1.43300000	      1.46269537	      4.76729412	     -2.69962959	      0.34654703	      1.02708894	      0.23107354	     18.05435608	     -4.87118672	     -1.17211482	    -56.64794038	      1.99494201	    -15.28209203	      3.80502609	     -0.39383512	      8.86868476	     -0.70989381	     -4.15859827	     -0.37238486	    -10.89107601	      6.52666283	     -5.31128599	     -6.60580526	      3.09106345
      1.43716667	      1.42062659	      4.70625488	     -2.57576776	      0.35123511	      1.02716873	      0.23094987	     18.42061189	     -4.77376949	     -1.23325083	    -55.70157321	      2.07771923	    -15.14147582	      3.81987032	     -0.76242479	      8.81194197	     -0.62783874	     -3.94031889	     -0.27118971	    -10.79612222	      6.50944583	     -5.31762220	     -6.54061999	      2.94500461
      1.44133333	      1.40106692	      4.65150158	     -2.44835584	      0.35591107	      1.02725022	      0.23083114	     18.74778035	     -4.69019959	     -1.30260776	    -54.71895723	      2.14441918	    -15.00134162	      3.83767830	     -1.15256362	      8.76079502	     -0.53276585	     -3.72623879	     -0.14710263	    -10.69213655	      6.49174204	     -5.35334540	     -6.48540204	      2.72482426
      1.44550000	      1.38748837	      4.61120765	     -2.32693887	      0.36058397	      1.02728553	      0.23072038	     19.06267688	     -4.62702373	     -1.36985484	    -53.71604310	      2.20244948	    -14.87840000	      3.85650058	     -1.54788111	      8.72407690	     -0.44420060	     -3.51097331	     -0.02115349	    -10.58607454	      6.47520558	     -5.39609721	     -6.44515203	      2.48876487
